# Blender v2.80 (sub 75) OBJ File: ''
# www.blender.org
mtllib cookedBeef.mtl
o cookedBeef
v -5.257524 -2.917798 12.798060
v -3.605578 -3.609678 11.623569
v -2.800359 -2.917798 14.323462
v -2.049126 -3.609678 12.630691
v 0.393737 -2.917798 15.086405
v 0.606008 -3.609678 13.088471
v 4.695514 -3.609678 12.752760
v 5.393867 -2.917798 14.675943
v 7.408850 -2.917798 11.802740
v 6.343518 -3.609676 10.402826
v 7.035700 -2.917796 8.742953
v 6.038338 -3.609676 7.900291
v 8.261242 -2.917794 3.576735
v 7.175530 -3.609674 3.379653
v 8.152131 -3.609672 -1.906085
v 9.455304 -2.917792 -2.341016
v 9.007533 -2.917792 -5.885863
v 7.009979 -3.609672 -5.704263
v 7.053459 -3.609671 -7.613066
v 8.111991 -2.917790 -9.318779
v 6.168418 -3.609670 -8.986408
v 7.029869 -2.917790 -10.997932
v 3.522323 -2.917789 -12.453194
v 0.534768 -3.609670 -10.176640
v -1.632556 -3.609670 -9.832321
v -2.619538 -2.917790 -11.932184
v -5.653945 -2.917790 -8.054836
v -4.279622 -3.609672 -6.586964
v -6.027095 -2.917792 -3.577098
v -4.584802 -3.609672 -2.924717
v -5.001533 -2.917794 4.750727
v -3.749530 -3.609674 4.281816
v -4.887311 -3.609676 9.875835
v -5.910903 -2.917796 9.882285
v -2.852618 -1.251128 14.526685
v -5.396504 -1.251128 13.073502
v 0.393737 -1.251128 15.086406
v 5.393867 -1.251128 14.675945
v 7.408850 -1.251127 11.802740
v 7.035700 -1.251126 8.742954
v 8.261242 -1.251124 3.576735
v 9.455304 -1.251122 -2.341016
v 9.007533 -1.251122 -5.885863
v 8.111991 -1.251120 -9.318779
v 7.029869 -1.251120 -10.997932
v 3.522323 -1.251119 -12.453194
v -2.619538 -1.251120 -11.932184
v -5.653945 -1.251120 -8.054836
v -6.027095 -1.251122 -3.577098
v -5.001533 -1.251124 4.750727
v -6.180097 -1.251126 11.207799
v -2.049126 -0.100767 12.630692
v -4.246430 -0.100767 11.401759
v 0.606008 -0.100768 13.088472
v 4.695514 -0.100767 12.752761
v 6.343518 -0.100766 10.402827
v 6.038338 -0.100766 7.900293
v 7.175530 -0.100764 3.379655
v 8.152131 -0.100762 -1.906084
v 7.785910 -0.100761 -4.805339
v 7.053459 -0.100760 -7.613064
v 6.168418 -0.100760 -8.986408
v 3.299663 -0.100760 -10.176640
v -1.632556 -0.100760 -9.832321
v -4.279622 -0.100760 -6.586962
v -4.584802 -0.100762 -2.924716
v -3.749530 -0.100765 4.281816
v -4.887311 -0.100766 9.875846
v 3.312793 -3.609676 10.719316
v 1.992051 0.336934 9.917458
v -0.536063 -0.507554 5.060948
v 2.154901 -0.545692 -0.369711
v 0.238986 0.366328 -6.648483
v 3.180482 -3.999292 -4.631241
v -0.100215 -3.806924 -0.613143
v 3.732272 -3.679334 1.617840
v 0.155387 -3.464416 7.637611
vt 0.904216 0.201872
vt 0.862646 0.234293
vt 0.837773 0.166251
vt 0.820505 0.210684
vt 0.753017 0.151128
vt 0.750283 0.202622
vt 0.643503 0.216808
vt 0.622460 0.168472
vt 0.573429 0.244673
vt 0.603402 0.279131
vt 0.587260 0.322369
vt 0.614714 0.342677
vt 0.561961 0.456097
vt 0.590877 0.459783
vt 0.572263 0.596225
vt 0.538481 0.608991
vt 0.554910 0.698983
vt 0.607234 0.691740
vt 0.608619 0.740589
vt 0.582932 0.785501
vt 0.633641 0.774478
vt 0.613526 0.826937
vt 0.707416 0.859326
vt 0.782926 0.797179
vt 0.839296 0.785408
vt 0.867763 0.837591
vt 0.942194 0.734327
vt 0.904407 0.698828
vt 0.946055 0.619365
vt 0.907565 0.604803
vt 0.908149 0.407912
vt 0.876132 0.421750
vt 0.898564 0.277208
vt 0.925204 0.275503
vt 0.485173 0.335576
vt 0.486725 0.277413
vt 0.522638 0.279108
vt 0.520951 0.335835
vt 0.485193 0.403989
vt 0.520642 0.404099
vt 0.487188 0.503648
vt 0.522638 0.503758
vt 0.942377 0.508367
vt 0.922985 0.482986
vt 0.942377 0.482986
vt 0.922985 0.508367
vt 0.942377 0.448398
vt 0.922985 0.448398
vt 0.942377 0.395568
vt 0.922985 0.395568
vt 0.922985 0.334423
vt 0.942377 0.334423
vt 0.942377 0.294306
vt 0.922985 0.294306
vt 0.942377 0.254070
vt 0.922985 0.254070
vt 0.922985 0.232456
vt 0.942377 0.232456
vt 0.942377 0.206014
vt 0.922985 0.206014
vt 0.903320 0.239876
vt 0.903593 0.206014
vt 0.922712 0.239883
vt 0.922635 0.294085
vt 0.903243 0.294079
vt 0.903297 0.342160
vt 0.922689 0.342167
vt 0.903476 0.423613
vt 0.922868 0.423620
vt 0.922908 0.480955
vt 0.903525 0.495917
vt 0.922985 0.508109
vt 0.192897 0.148479
vt 0.094887 0.128075
vt 0.173827 0.091209
vt 0.124767 0.179558
vt 0.271870 0.081837
vt 0.273085 0.140814
vt 0.394425 0.159293
vt 0.420229 0.104431
vt 0.474379 0.192327
vt 0.438712 0.231181
vt 0.955761 0.464477
vt 0.955761 0.436189
vt 0.482691 0.433501
vt 0.424395 0.303349
vt 0.456873 0.280565
vt 0.448920 0.437312
vt 0.467060 0.593195
vt 0.506004 0.608238
vt 0.450095 0.676777
vt 0.485262 0.710431
vt 0.422393 0.756916
vt 0.451391 0.808414
vt 0.393122 0.794992
vt 0.415603 0.854969
vt 0.307901 0.889843
vt 0.305035 0.823515
vt 0.158565 0.802990
vt 0.125700 0.861601
vt 0.043220 0.742315
vt 0.086327 0.702920
vt 0.041406 0.611228
vt 0.084844 0.595706
vt 0.089348 0.371091
vt 0.124773 0.387791
vt 0.890179 0.476132
vt 0.890142 0.412951
vt 0.067619 0.180694
vt 0.102465 0.222594
vt 0.682447 0.266888
vt 0.307480 0.236184
vt 0.222631 0.371827
vt 0.291661 0.535566
vt 0.220653 0.714492
vt 0.706328 0.659142
vt 0.786978 0.551905
vt 0.683507 0.500109
vt 0.769269 0.341299
vt 0.903591 0.511598
vn -0.1831 -0.9378 0.2949
vn -0.1913 -0.9356 0.2967
vn -0.1920 -0.9355 0.2967
vn -0.1922 -0.9353 0.2970
vn -0.0825 -0.9348 0.3455
vn -0.0554 -0.9453 0.3215
vn 0.0271 -0.9437 0.3297
vn 0.3124 -0.9243 0.2191
vn 0.6101 -0.7888 -0.0744
vn 0.4969 -0.8598 0.1179
vn 0.5160 -0.8467 0.1298
vn 0.4923 -0.8648 0.0993
vn 0.5224 -0.8472 0.0965
vn 0.4532 -0.8896 -0.0572
vn 0.3180 -0.9433 -0.0956
vn 0.4156 -0.9031 -0.1084
vn 0.3279 -0.9447 0.0075
vn 0.2996 -0.9343 -0.1931
vn 0.0488 -0.9717 -0.2312
vn 0.1155 -0.9535 -0.2785
vn -0.0465 -0.9550 -0.2928
vn -0.0274 -0.9458 -0.3235
vn -0.2503 -0.9479 -0.1972
vn -0.2495 -0.9485 -0.1953
vn -0.2533 -0.9454 -0.2050
vn -0.2542 -0.9447 -0.2073
vn -0.4194 -0.9071 -0.0349
vn -0.4673 -0.8824 0.0542
vn -0.4522 -0.8902 0.0557
vn -0.5577 -0.8241 -0.0988
vn -0.5106 -0.8535 -0.1038
vn -0.2605 -0.9464 0.1911
vn -0.5551 -0.8224 0.1244
vn -0.4878 -0.1818 0.8538
vn -0.5237 -0.1193 0.8435
vn -0.1686 -0.1245 0.9778
vn -0.2323 -0.0000 0.9726
vn 0.0818 -0.0000 0.9966
vn 0.8187 -0.0000 0.5742
vn 0.9926 0.0000 -0.1211
vn 0.9730 -0.0000 0.2308
vn 0.9802 0.0000 0.1978
vn 0.9921 0.0000 -0.1253
vn 0.9676 0.0000 -0.2524
vn 0.8406 0.0000 -0.5417
vn 0.3832 0.0000 -0.9237
vn -0.0845 0.0000 -0.9964
vn -0.7875 0.0000 -0.6163
vn -0.9965 0.0000 -0.0830
vn -0.9925 0.0000 0.1222
vn -0.9836 -0.0161 -0.1795
vn -0.9847 0.0000 -0.1745
vn -0.9262 -0.3147 0.2076
vn -0.2415 0.8692 0.4314
vn -0.2428 0.8716 0.4258
vn -0.2432 0.8716 0.4257
vn -0.2415 0.8690 0.4318
vn -0.0846 0.8674 0.4904
vn 0.0412 0.8640 0.5018
vn 0.4633 0.8245 0.3249
vn 0.7858 0.6111 -0.0958
vn 0.6837 0.7115 0.1622
vn 0.7006 0.6914 0.1762
vn 0.6809 0.7194 0.1374
vn 0.7097 0.6922 0.1311
vn 0.6442 0.7605 -0.0814
vn 0.6002 0.7844 -0.1566
vn 0.4502 0.8445 -0.2901
vn 0.1783 0.8851 -0.4298
vn -0.0395 0.8840 -0.4657
vn -0.0316 0.8908 -0.4532
vn -0.3874 0.8661 -0.3160
vn -0.3823 0.8742 -0.2992
vn -0.6086 0.7918 -0.0507
vn -0.6589 0.7483 0.0764
vn -0.6432 0.7616 0.0792
vn -0.6980 0.7018 -0.1420
vn -0.7321 0.6680 -0.1336
vn -0.5151 0.8294 0.2163
vn 0.0000 -1.0000 -0.0000
vn -0.0219 0.9916 0.1273
vn 0.0168 0.9836 -0.1798
vn -0.0557 0.9983 -0.0140
vn 0.1197 0.9925 0.0244
vn -0.0980 0.9878 -0.1207
vn 0.0116 0.9898 0.1417
vn -0.0490 0.9950 0.0876
vn 0.0927 0.9936 0.0650
vn 0.1014 0.9948 -0.0124
vn 0.0637 0.9976 -0.0267
vn -0.0607 0.9975 -0.0371
vn -0.0339 0.9875 0.1538
vn 0.0689 0.9976 -0.0080
vn 0.1136 0.9923 0.0493
vn -0.0776 0.9969 -0.0143
vn 0.0655 0.9977 -0.0161
vn 0.0659 0.9977 -0.0172
vn 0.0635 0.9979 -0.0087
vn 0.0626 0.9972 -0.0404
vn 0.0402 0.9945 -0.0968
vn 0.0637 0.9979 -0.0080
vn 0.0123 0.9901 0.1401
vn -0.1029 0.9947 -0.0086
vn -0.1036 0.9910 -0.0845
vn -0.0097 0.9902 -0.1395
vn -0.0104 -0.9978 -0.0652
vn 0.0066 -0.9990 0.0445
vn 0.0043 -0.9987 0.0507
vn 0.0069 -0.9989 0.0471
vn -0.0460 -0.9989 0.0042
vn -0.0421 -0.9991 -0.0035
vn -0.0430 -0.9991 -0.0018
vn -0.0218 -0.9996 -0.0178
vn -0.0703 -0.9975 -0.0097
vn 0.0165 -0.9968 -0.0779
vn 0.0670 -0.9968 -0.0432
vn 0.1019 -0.9948 0.0023
vn 0.0934 -0.9952 -0.0281
vn -0.0467 -0.9989 0.0054
vn 0.0037 -0.9987 0.0508
vn 0.0527 -0.9975 0.0464
vn 0.0185 -0.9998 0.0034
vn 0.0316 -0.9995 0.0064
vn 0.0146 -0.9997 -0.0220
vn 0.0146 -0.9996 -0.0226
vn 0.0182 -0.9996 -0.0193
vn -0.0123 -0.9993 -0.0345
vn 0.0021 -0.9993 0.0369
vn 0.0015 -0.9993 0.0366
vn -0.0244 -0.9997 -0.0061
vn -0.0237 -0.9995 -0.0229
vn 0.0217 -0.9996 -0.0159
vn -0.9130 -0.1395 0.3834
usemtl Default_OBJ
s 1
f 1/1/1 2/2/2 3/3/3
f 2/2/2 4/4/4 3/3/3
f 5/5/5 3/3/5 4/4/5
f 5/5/6 4/4/6 6/6/6
f 5/5/7 7/7/7 8/8/7
f 7/7/7 5/5/7 6/6/7
f 9/9/8 7/7/8 10/10/8
f 7/7/8 9/9/8 8/8/8
f 11/11/9 9/9/9 10/10/9
f 10/10/9 12/12/9 11/11/9
f 13/13/10 11/11/10 12/12/10
f 12/12/11 14/14/11 13/13/11
f 13/13/12 15/15/12 16/16/12
f 15/15/13 13/13/13 14/14/13
f 17/17/14 16/16/14 15/15/14
f 15/15/15 18/18/15 17/17/15
f 17/17/16 19/19/16 20/20/16
f 19/19/17 17/17/17 18/18/17
f 20/20/18 21/21/18 22/22/18
f 21/21/18 20/20/18 19/19/18
f 23/23/19 21/21/19 24/24/19
f 21/21/20 23/23/20 22/22/20
f 24/24/21 25/25/21 26/26/21
f 24/24/22 26/26/22 23/23/22
f 27/27/23 26/26/24 25/25/25
f 25/25/25 28/28/26 27/27/23
f 29/29/27 27/27/27 28/28/27
f 29/29/27 28/28/27 30/30/27
f 31/31/28 30/30/28 32/32/28
f 31/31/29 29/29/29 30/30/29
f 31/31/30 33/33/30 34/34/30
f 33/33/31 31/31/31 32/32/31
f 2/2/32 1/1/32 33/33/32
f 33/33/33 1/1/33 34/34/33
f 35/35/34 36/36/34 1/37/34
f 35/35/35 1/37/35 3/38/35
f 37/39/36 35/35/36 3/38/36
f 37/39/37 3/38/37 5/40/37
f 38/41/38 37/39/38 5/40/38
f 38/41/38 5/40/38 8/42/38
f 38/43/39 9/44/39 39/45/39
f 9/44/39 38/43/39 8/46/39
f 40/47/40 39/45/40 9/44/40
f 40/47/40 9/44/40 11/48/40
f 41/49/41 40/47/41 11/48/41
f 41/49/41 11/48/41 13/50/41
f 41/49/42 16/51/42 42/52/42
f 16/51/42 41/49/42 13/50/42
f 43/53/43 42/52/43 16/51/43
f 43/53/43 16/51/43 17/54/43
f 44/55/44 43/53/44 17/54/44
f 44/55/44 17/54/44 20/56/44
f 44/55/45 22/57/45 45/58/45
f 22/57/45 44/55/45 20/56/45
f 46/59/46 45/58/46 22/57/46
f 46/59/46 22/57/46 23/60/46
f 47/61/47 46/62/47 23/60/47
f 47/61/47 23/60/47 26/63/47
f 47/61/48 27/64/48 48/65/48
f 27/64/48 47/61/48 26/63/48
f 49/66/49 48/65/49 27/64/49
f 49/66/49 27/64/49 29/67/49
f 50/68/50 49/66/50 29/67/50
f 50/68/50 29/67/50 31/69/50
f 50/68/51 34/70/51 51/71/51
f 34/70/52 50/68/52 31/69/52
f 34/70/53 1/72/53 51/71/53
f 52/73/54 36/74/55 35/75/56
f 36/74/55 52/73/54 53/76/57
f 52/73/58 37/77/58 54/78/58
f 37/77/58 52/73/58 35/75/58
f 55/79/59 54/78/59 37/77/59
f 37/77/59 38/80/59 55/79/59
f 39/81/60 55/79/60 38/80/60
f 55/79/60 39/81/60 56/82/60
f 56/83/61 40/47/61 57/84/61
f 40/47/61 56/83/61 39/45/61
f 41/85/62 57/86/62 40/87/62
f 57/86/63 41/85/63 58/88/63
f 59/89/64 41/85/64 42/90/64
f 41/85/65 59/89/65 58/88/65
f 60/91/66 59/89/66 42/90/66
f 42/90/66 43/92/66 60/91/66
f 61/93/67 60/91/67 43/92/67
f 43/92/67 44/94/67 61/93/67
f 61/93/68 44/94/68 62/95/68
f 44/94/68 45/96/68 62/95/68
f 45/96/69 46/97/69 63/98/69
f 45/96/69 63/98/69 62/95/69
f 64/99/70 46/97/70 47/100/70
f 46/97/71 64/99/71 63/98/71
f 64/99/72 48/101/72 65/102/72
f 48/101/73 64/99/73 47/100/73
f 65/102/74 49/103/74 66/104/74
f 49/103/74 65/102/74 48/101/74
f 66/104/75 50/105/75 67/106/75
f 50/105/76 66/104/76 49/103/76
f 68/107/77 67/108/77 50/68/77
f 50/68/78 51/71/78 68/107/78
f 36/74/79 53/76/79 51/109/79
f 51/109/79 53/76/79 68/110/79
f 6/6/80 69/111/80 7/7/80
f 54/78/81 70/112/81 52/73/81
f 57/86/82 71/113/82 70/112/82
f 57/86/83 58/88/83 71/113/83
f 71/113/84 67/106/84 68/110/84
f 71/113/85 53/76/85 70/112/85
f 54/78/86 55/79/86 70/112/86
f 70/112/87 53/76/87 52/73/87
f 55/79/88 56/82/88 70/112/88
f 56/82/89 57/86/89 70/112/89
f 71/113/90 68/110/90 53/76/90
f 58/88/91 72/114/91 71/113/91
f 59/89/92 73/115/92 72/114/92
f 72/114/93 66/104/93 67/106/93
f 72/114/94 67/106/94 71/113/94
f 58/88/95 59/89/95 72/114/95
f 60/91/96 61/93/97 73/115/98
f 61/93/99 62/95/99 73/115/99
f 62/95/100 63/98/100 73/115/100
f 59/89/101 60/91/96 73/115/98
f 73/115/102 66/104/102 72/114/102
f 73/115/103 65/102/103 66/104/103
f 64/99/104 65/102/104 73/115/104
f 63/98/105 64/99/105 73/115/105
f 25/25/106 24/24/106 74/116/106
f 32/32/107 75/117/108 76/118/109
f 30/30/110 28/28/111 75/117/112
f 28/28/113 25/25/113 75/117/113
f 25/25/114 74/116/114 75/117/114
f 24/24/115 21/21/115 74/116/115
f 21/21/116 19/19/116 74/116/116
f 19/19/117 18/18/117 74/116/117
f 18/18/118 15/15/118 74/116/118
f 32/32/119 30/30/110 75/117/112
f 75/117/108 74/116/120 76/118/109
f 74/116/121 15/15/121 76/118/121
f 15/15/122 14/14/122 76/118/122
f 33/33/123 32/32/123 77/119/123
f 77/119/124 4/4/125 2/2/126
f 77/119/127 69/111/127 4/4/127
f 32/32/107 76/118/109 77/119/128
f 76/118/109 14/14/129 77/119/128
f 77/119/130 14/14/130 12/12/130
f 77/119/131 12/12/131 69/111/131
f 2/2/126 33/33/132 77/119/124
f 6/6/80 4/4/80 69/111/80
f 10/10/80 69/111/80 12/12/80
f 69/111/80 10/10/80 7/7/80
f 1/72/133 36/120/133 51/71/133
