# Blender v2.80 (sub 75) OBJ File: 'cookedBeef.blend'
# www.blender.org
mtllib cookedBeef.mtl
o cookedBeef
v -15.215530 0.691879 5.118959
v -13.563585 -0.000001 3.944467
v -12.758366 0.691879 6.644361
v -12.007133 -0.000001 4.951589
v -9.564270 0.691879 7.407303
v -9.351999 -0.000001 5.409370
v -5.262493 -0.000001 5.073659
v -4.564140 0.691879 6.996842
v -2.549157 0.691879 4.123638
v -3.614489 -0.000000 2.723725
v -2.922307 0.691880 1.063852
v -3.919669 -0.000000 0.221190
v -1.696765 0.691881 -4.102367
v -2.782477 0.000001 -4.299448
v -1.805876 0.000002 -9.585187
v -0.502703 0.691882 -10.020118
v -0.950474 0.691882 -13.564964
v -2.948028 0.000002 -13.383365
v -2.904548 0.000002 -15.292168
v -1.846016 0.691883 -16.997881
v -3.789589 0.000003 -16.665510
v -2.928138 0.691883 -18.677034
v -6.435684 0.691883 -20.132296
v -9.423239 0.000003 -17.855742
v -11.590563 0.000003 -17.511423
v -12.577545 0.691883 -19.611286
v -15.611952 0.691883 -15.733938
v -14.237629 0.000002 -14.266066
v -15.985102 0.691882 -11.256200
v -14.542809 0.000002 -10.603819
v -14.959539 0.691881 -2.928375
v -13.707537 0.000001 -3.397286
v -14.845318 -0.000000 2.196734
v -15.868910 0.691880 2.203184
v -12.810625 2.358549 6.847583
v -15.354511 2.358549 5.394400
v -9.564270 2.358549 7.407304
v -4.564140 2.358549 6.996843
v -2.549157 2.358550 4.123638
v -2.922307 2.358550 1.063852
v -1.696765 2.358551 -4.102367
v -0.502703 2.358552 -10.020118
v -0.950474 2.358552 -13.564964
v -1.846016 2.358553 -16.997881
v -2.928138 2.358553 -18.677034
v -6.435684 2.358554 -20.132296
v -12.577545 2.358553 -19.611286
v -15.611952 2.358553 -15.733938
v -15.985102 2.358552 -11.256200
v -14.959539 2.358551 -2.928375
v -16.138103 2.358550 3.528697
v -12.007133 3.508910 4.951590
v -14.204437 3.508910 3.722657
v -9.351999 3.508909 5.409370
v -5.262493 3.508910 5.073659
v -3.614489 3.508910 2.723725
v -3.919669 3.508910 0.221191
v -2.782477 3.508911 -4.299447
v -1.805876 3.508912 -9.585186
v -2.172097 3.508913 -12.484442
v -2.904548 3.508913 -15.292167
v -3.789589 3.508913 -16.665510
v -6.658344 3.508913 -17.855742
v -11.590563 3.508913 -17.511423
v -14.237629 3.508913 -14.266065
v -14.542809 3.508912 -10.603818
v -13.707537 3.508911 -3.397286
v -14.845318 3.508910 2.196744
v -6.645214 -0.000000 3.040215
v -7.965956 3.946610 2.238355
v -10.494070 3.102121 -2.618154
v -7.803106 3.063982 -8.048814
v -9.719021 3.976002 -14.327585
v -6.777525 -0.389618 -12.310343
v -10.058222 -0.197249 -8.292245
v -6.225735 -0.069659 -6.061261
v -9.802620 0.145260 -0.041490
vt 0.904216 0.201872
vt 0.862646 0.234293
vt 0.837773 0.166251
vt 0.820505 0.210684
vt 0.753017 0.151128
vt 0.750283 0.202622
vt 0.643503 0.216808
vt 0.622460 0.168472
vt 0.573429 0.244673
vt 0.603402 0.279131
vt 0.587260 0.322369
vt 0.614714 0.342677
vt 0.561961 0.456097
vt 0.590877 0.459783
vt 0.572263 0.596225
vt 0.538481 0.608991
vt 0.554910 0.698983
vt 0.607234 0.691740
vt 0.608619 0.740589
vt 0.582932 0.785501
vt 0.633641 0.774478
vt 0.613526 0.826937
vt 0.707416 0.859326
vt 0.782926 0.797179
vt 0.839296 0.785408
vt 0.867763 0.837591
vt 0.942194 0.734327
vt 0.904407 0.698828
vt 0.946055 0.619365
vt 0.907565 0.604803
vt 0.908149 0.407912
vt 0.876132 0.421750
vt 0.898564 0.277208
vt 0.925204 0.275503
vt 0.485173 0.335576
vt 0.486725 0.277413
vt 0.522638 0.279108
vt 0.520951 0.335835
vt 0.485193 0.403989
vt 0.520642 0.404099
vt 0.487188 0.503648
vt 0.522638 0.503758
vt 0.942377 0.508367
vt 0.922985 0.482986
vt 0.942377 0.482986
vt 0.922985 0.508367
vt 0.942377 0.448398
vt 0.922985 0.448398
vt 0.942377 0.395568
vt 0.922985 0.395568
vt 0.922985 0.334423
vt 0.942377 0.334423
vt 0.942377 0.294306
vt 0.922985 0.294306
vt 0.942377 0.254070
vt 0.922985 0.254070
vt 0.922985 0.232456
vt 0.942377 0.232456
vt 0.942377 0.206014
vt 0.922985 0.206014
vt 0.903320 0.239876
vt 0.903593 0.206014
vt 0.922712 0.239883
vt 0.922635 0.294085
vt 0.903243 0.294079
vt 0.903297 0.342160
vt 0.922689 0.342167
vt 0.903476 0.423613
vt 0.922868 0.423620
vt 0.922908 0.480955
vt 0.903525 0.495917
vt 0.922985 0.508109
vt 0.192897 0.148479
vt 0.094887 0.128075
vt 0.173827 0.091209
vt 0.124767 0.179558
vt 0.271870 0.081837
vt 0.273085 0.140814
vt 0.394425 0.159293
vt 0.420229 0.104431
vt 0.474379 0.192327
vt 0.438712 0.231181
vt 0.955761 0.464477
vt 0.955761 0.436189
vt 0.482691 0.433501
vt 0.424395 0.303349
vt 0.456873 0.280565
vt 0.448920 0.437312
vt 0.467060 0.593195
vt 0.506004 0.608238
vt 0.450095 0.676777
vt 0.485262 0.710431
vt 0.422393 0.756916
vt 0.451391 0.808414
vt 0.393122 0.794992
vt 0.415603 0.854969
vt 0.307901 0.889843
vt 0.305035 0.823515
vt 0.158565 0.802990
vt 0.125700 0.861601
vt 0.043220 0.742315
vt 0.086327 0.702920
vt 0.041406 0.611228
vt 0.084844 0.595706
vt 0.089348 0.371091
vt 0.124773 0.387791
vt 0.890179 0.476132
vt 0.890142 0.412951
vt 0.067619 0.180694
vt 0.102465 0.222594
vt 0.682447 0.266888
vt 0.307480 0.236184
vt 0.222631 0.371827
vt 0.291661 0.535566
vt 0.220653 0.714492
vt 0.706328 0.659142
vt 0.786978 0.551905
vt 0.683507 0.500109
vt 0.769269 0.341299
vt 0.903591 0.511598
vn -0.1831 -0.9378 0.2949
vn -0.1922 -0.9353 0.2970
vn -0.0825 -0.9348 0.3455
vn -0.0554 -0.9453 0.3215
vn 0.0271 -0.9437 0.3297
vn 0.3124 -0.9243 0.2191
vn 0.6101 -0.7888 -0.0744
vn 0.4969 -0.8598 0.1179
vn 0.5160 -0.8467 0.1298
vn 0.4923 -0.8648 0.0993
vn 0.5224 -0.8472 0.0965
vn 0.4532 -0.8896 -0.0572
vn 0.3180 -0.9433 -0.0956
vn 0.4156 -0.9031 -0.1084
vn 0.3279 -0.9447 0.0075
vn 0.2996 -0.9343 -0.1931
vn 0.0488 -0.9717 -0.2312
vn 0.1155 -0.9535 -0.2785
vn -0.0465 -0.9550 -0.2928
vn -0.0274 -0.9458 -0.3235
vn -0.2495 -0.9485 -0.1953
vn -0.2542 -0.9447 -0.2073
vn -0.4194 -0.9071 -0.0349
vn -0.4673 -0.8824 0.0542
vn -0.4522 -0.8902 0.0557
vn -0.5577 -0.8241 -0.0988
vn -0.5106 -0.8535 -0.1038
vn -0.2605 -0.9464 0.1911
vn -0.5551 -0.8224 0.1244
vn -0.4878 -0.1818 0.8538
vn -0.5237 -0.1193 0.8435
vn -0.1686 -0.1245 0.9778
vn -0.2323 -0.0000 0.9726
vn 0.0818 -0.0000 0.9966
vn 0.8187 -0.0000 0.5742
vn 0.9926 -0.0000 -0.1211
vn 0.9730 0.0000 0.2308
vn 0.9802 0.0000 0.1978
vn 0.9921 0.0000 -0.1253
vn 0.9676 0.0000 -0.2524
vn 0.8406 0.0000 -0.5417
vn 0.3832 0.0000 -0.9237
vn -0.0845 0.0000 -0.9964
vn -0.7875 0.0000 -0.6163
vn -0.9965 0.0000 -0.0830
vn -0.9925 0.0000 0.1222
vn -0.9836 -0.0161 -0.1795
vn -0.9847 0.0000 -0.1745
vn -0.9262 -0.3147 0.2076
vn -0.2432 0.8716 0.4257
vn -0.2415 0.8690 0.4318
vn -0.0846 0.8674 0.4904
vn 0.0412 0.8640 0.5018
vn 0.4633 0.8245 0.3249
vn 0.7858 0.6111 -0.0958
vn 0.6837 0.7115 0.1622
vn 0.7006 0.6914 0.1762
vn 0.6809 0.7194 0.1374
vn 0.7097 0.6922 0.1311
vn 0.6442 0.7605 -0.0814
vn 0.6002 0.7844 -0.1566
vn 0.4502 0.8445 -0.2901
vn 0.1783 0.8851 -0.4298
vn -0.0395 0.8840 -0.4657
vn -0.0316 0.8908 -0.4532
vn -0.3874 0.8661 -0.3160
vn -0.3823 0.8742 -0.2992
vn -0.6086 0.7918 -0.0507
vn -0.6589 0.7483 0.0764
vn -0.6432 0.7616 0.0792
vn -0.6980 0.7018 -0.1420
vn -0.7321 0.6680 -0.1336
vn -0.5151 0.8294 0.2163
vn 0.0000 -1.0000 -0.0000
vn -0.0219 0.9916 0.1273
vn 0.0168 0.9836 -0.1798
vn -0.0557 0.9983 -0.0140
vn 0.1197 0.9925 0.0244
vn -0.0980 0.9878 -0.1207
vn 0.0116 0.9898 0.1417
vn -0.0490 0.9950 0.0876
vn 0.0927 0.9936 0.0650
vn 0.1014 0.9948 -0.0124
vn 0.0637 0.9976 -0.0267
vn -0.0607 0.9975 -0.0371
vn -0.0339 0.9875 0.1538
vn 0.0689 0.9976 -0.0080
vn 0.1136 0.9923 0.0493
vn -0.0776 0.9969 -0.0143
vn 0.0659 0.9977 -0.0172
vn 0.0626 0.9972 -0.0404
vn 0.0402 0.9945 -0.0968
vn 0.0637 0.9979 -0.0081
vn 0.0123 0.9901 0.1401
vn -0.1029 0.9947 -0.0086
vn -0.1036 0.9910 -0.0845
vn -0.0097 0.9902 -0.1395
vn -0.0104 -0.9978 -0.0652
vn 0.0069 -0.9989 0.0454
vn -0.0421 -0.9991 -0.0035
vn -0.0218 -0.9996 -0.0178
vn -0.0703 -0.9975 -0.0097
vn 0.0165 -0.9968 -0.0779
vn 0.0670 -0.9968 -0.0432
vn 0.1019 -0.9948 0.0023
vn 0.0934 -0.9952 -0.0281
vn -0.0467 -0.9989 0.0054
vn 0.0037 -0.9987 0.0508
vn 0.0527 -0.9975 0.0464
vn 0.0185 -0.9998 0.0034
vn 0.0316 -0.9995 0.0064
vn 0.0146 -0.9996 -0.0226
vn -0.0123 -0.9993 -0.0345
vn 0.0043 -0.9993 0.0382
vn 0.0015 -0.9993 0.0366
vn -0.0244 -0.9997 -0.0061
vn -0.0237 -0.9995 -0.0229
vn 0.0217 -0.9996 -0.0159
vn -0.9130 -0.1395 0.3834
usemtl Default_OBJ
s off
f 1/1/1 2/2/1 3/3/1
f 2/2/2 4/4/2 3/3/2
f 5/5/3 3/3/3 4/4/3
f 5/5/4 4/4/4 6/6/4
f 5/5/5 7/7/5 8/8/5
f 7/7/5 5/5/5 6/6/5
f 9/9/6 7/7/6 10/10/6
f 7/7/6 9/9/6 8/8/6
f 11/11/7 9/9/7 10/10/7
f 10/10/7 12/12/7 11/11/7
f 13/13/8 11/11/8 12/12/8
f 12/12/9 14/14/9 13/13/9
f 13/13/10 15/15/10 16/16/10
f 15/15/11 13/13/11 14/14/11
f 17/17/12 16/16/12 15/15/12
f 15/15/13 18/18/13 17/17/13
f 17/17/14 19/19/14 20/20/14
f 19/19/15 17/17/15 18/18/15
f 20/20/16 21/21/16 22/22/16
f 21/21/16 20/20/16 19/19/16
f 23/23/17 21/21/17 24/24/17
f 21/21/18 23/23/18 22/22/18
f 24/24/19 25/25/19 26/26/19
f 24/24/20 26/26/20 23/23/20
f 27/27/21 26/26/21 25/25/21
f 25/25/22 28/28/22 27/27/22
f 29/29/23 27/27/23 28/28/23
f 29/29/23 28/28/23 30/30/23
f 31/31/24 30/30/24 32/32/24
f 31/31/25 29/29/25 30/30/25
f 31/31/26 33/33/26 34/34/26
f 33/33/27 31/31/27 32/32/27
f 2/2/28 1/1/28 33/33/28
f 33/33/29 1/1/29 34/34/29
f 35/35/30 36/36/30 1/37/30
f 35/35/31 1/37/31 3/38/31
f 37/39/32 35/35/32 3/38/32
f 37/39/33 3/38/33 5/40/33
f 38/41/34 37/39/34 5/40/34
f 38/41/34 5/40/34 8/42/34
f 38/43/35 9/44/35 39/45/35
f 9/44/35 38/43/35 8/46/35
f 40/47/36 39/45/36 9/44/36
f 40/47/36 9/44/36 11/48/36
f 41/49/37 40/47/37 11/48/37
f 41/49/37 11/48/37 13/50/37
f 41/49/38 16/51/38 42/52/38
f 16/51/38 41/49/38 13/50/38
f 43/53/39 42/52/39 16/51/39
f 43/53/39 16/51/39 17/54/39
f 44/55/40 43/53/40 17/54/40
f 44/55/40 17/54/40 20/56/40
f 44/55/41 22/57/41 45/58/41
f 22/57/41 44/55/41 20/56/41
f 46/59/42 45/58/42 22/57/42
f 46/59/42 22/57/42 23/60/42
f 47/61/43 46/62/43 23/60/43
f 47/61/43 23/60/43 26/63/43
f 47/61/44 27/64/44 48/65/44
f 27/64/44 47/61/44 26/63/44
f 49/66/45 48/65/45 27/64/45
f 49/66/45 27/64/45 29/67/45
f 50/68/46 49/66/46 29/67/46
f 50/68/46 29/67/46 31/69/46
f 50/68/47 34/70/47 51/71/47
f 34/70/48 50/68/48 31/69/48
f 34/70/49 1/72/49 51/71/49
f 52/73/50 36/74/50 35/75/50
f 36/74/51 52/73/51 53/76/51
f 52/73/52 37/77/52 54/78/52
f 37/77/52 52/73/52 35/75/52
f 55/79/53 54/78/53 37/77/53
f 37/77/53 38/80/53 55/79/53
f 39/81/54 55/79/54 38/80/54
f 55/79/54 39/81/54 56/82/54
f 56/83/55 40/47/55 57/84/55
f 40/47/55 56/83/55 39/45/55
f 41/85/56 57/86/56 40/87/56
f 57/86/57 41/85/57 58/88/57
f 59/89/58 41/85/58 42/90/58
f 41/85/59 59/89/59 58/88/59
f 60/91/60 59/89/60 42/90/60
f 42/90/60 43/92/60 60/91/60
f 61/93/61 60/91/61 43/92/61
f 43/92/61 44/94/61 61/93/61
f 61/93/62 44/94/62 62/95/62
f 44/94/62 45/96/62 62/95/62
f 45/96/63 46/97/63 63/98/63
f 45/96/63 63/98/63 62/95/63
f 64/99/64 46/97/64 47/100/64
f 46/97/65 64/99/65 63/98/65
f 64/99/66 48/101/66 65/102/66
f 48/101/67 64/99/67 47/100/67
f 65/102/68 49/103/68 66/104/68
f 49/103/68 65/102/68 48/101/68
f 66/104/69 50/105/69 67/106/69
f 50/105/70 66/104/70 49/103/70
f 68/107/71 67/108/71 50/68/71
f 50/68/72 51/71/72 68/107/72
f 36/74/73 53/76/73 51/109/73
f 51/109/73 53/76/73 68/110/73
f 6/6/74 69/111/74 7/7/74
f 54/78/75 70/112/75 52/73/75
f 57/86/76 71/113/76 70/112/76
f 57/86/77 58/88/77 71/113/77
f 71/113/78 67/106/78 68/110/78
f 71/113/79 53/76/79 70/112/79
f 54/78/80 55/79/80 70/112/80
f 70/112/81 53/76/81 52/73/81
f 55/79/82 56/82/82 70/112/82
f 56/82/83 57/86/83 70/112/83
f 71/113/84 68/110/84 53/76/84
f 58/88/85 72/114/85 71/113/85
f 59/89/86 73/115/86 72/114/86
f 72/114/87 66/104/87 67/106/87
f 72/114/88 67/106/88 71/113/88
f 58/88/89 59/89/89 72/114/89
f 60/91/90 61/93/90 73/115/90
f 61/93/91 62/95/91 73/115/91
f 62/95/92 63/98/92 73/115/92
f 59/89/93 60/91/93 73/115/93
f 73/115/94 66/104/94 72/114/94
f 73/115/95 65/102/95 66/104/95
f 64/99/96 65/102/96 73/115/96
f 63/98/97 64/99/97 73/115/97
f 25/25/98 24/24/98 74/116/98
f 32/32/99 75/117/99 76/118/99
f 30/30/100 28/28/100 75/117/100
f 28/28/101 25/25/101 75/117/101
f 25/25/102 74/116/102 75/117/102
f 24/24/103 21/21/103 74/116/103
f 21/21/104 19/19/104 74/116/104
f 19/19/105 18/18/105 74/116/105
f 18/18/106 15/15/106 74/116/106
f 32/32/107 30/30/107 75/117/107
f 75/117/108 74/116/108 76/118/108
f 74/116/109 15/15/109 76/118/109
f 15/15/110 14/14/110 76/118/110
f 33/33/111 32/32/111 77/119/111
f 77/119/112 4/4/112 2/2/112
f 77/119/113 69/111/113 4/4/113
f 32/32/114 76/118/114 77/119/114
f 76/118/115 14/14/115 77/119/115
f 77/119/116 14/14/116 12/12/116
f 77/119/117 12/12/117 69/111/117
f 2/2/118 33/33/118 77/119/118
f 6/6/74 4/4/74 69/111/74
f 10/10/74 69/111/74 12/12/74
f 69/111/74 10/10/74 7/7/74
f 1/72/119 36/120/119 51/71/119
